# xmcd CD database file
#
# Track frame offsets:
#	150
#	35470
#	65313
#	98529
#	110717
#	141720
#	177442
#	196482
#	200047
#	214607
#	218600
#
# Disc length: 3125 seconds
#
# Revision: 0
# Processed by: cddbd v1.5.1PL2 Copyright (c) Steve Scherf et al.
# Submitted via: CDex 1.50
#
DISCID=aa0c330b
DTITLE=Bill Carrothers - A Band In All Hope
DYEAR=1995
DGENRE=Jazz
TTITLE0=Puttin' On The Ritz
TTITLE1=4:30 AM
TTITLE2=Waltz Macabre
TTITLE3=Body and Soul
TTITLE4=Think Before You Think
TTITLE5=You Go To My Head
TTITLE6=Space Acres
TTITLE7=Epilogue 1
TTITLE8=7.5
TTITLE9=Epilogue 2
TTITLE10=Dixie 
EXTD=YEAR: 1995
EXTT0=
EXTT1=
EXTT2=
EXTT3=
EXTT4=
EXTT5=
EXTT6=
EXTT7=
EXTT8=
EXTT9=
EXTT10=
PLAYORDER=
